<?xml version="1.0" encoding="utf-8"?>
<svg viewBox="0 0 1500 1000" xmlns="http://www.w3.org/2000/svg">
  <defs>
    <clipPath id="clippath0" transform="">
      <path d="M 0 1000 L 1500 1000 L 1500 0 L 0 0 Z" style="fill: none; clip-rule: nonzero;"/>
    </clipPath>
  </defs>
  <g transform="matrix(1, 0, 0, -1, 0, 1000)">
    <g transform="">
      <path d="M 0 0 L 1500 0 L 1500 1000 L 0 1000 Z" style="fill: rgb(0, 0, 0); fill-opacity: 1;"/>
      <path d="M 0 1000 L 1500 1000 L 1500 0 L 0 0 Z" style="fill: none;"/>
    </g>
    <g style="clip-path: url(#clippath0);">
      <g transform="translate(652.0063 470.3945)">
        <path d="M 0 0 C -1.105 1.693 -2.398 3.343 -3.896 4.939 C -8.988 10.03 -15.175 12.571 -22.46 12.571 C -29.646 12.571 -35.807 10.004 -40.943 4.868 C -46.087 -0.276 -48.655 -6.437 -48.655 -13.624 C -48.655 -20.909 -46.087 -27.097 -40.943 -32.179 C -35.807 -37.27 -29.646 -39.82 -22.46 -39.82 C -15.175 -39.82 -8.988 -37.27 -3.896 -32.179 C -2.398 -30.689 -1.105 -29.04 0 -27.239 Z M 0 61.227 L 26.195 61.227 L 26.195 -62.271 L 0 -62.271 L 0 -61.076 C -6.794 -64.366 -14.275 -66.016 -22.46 -66.016 C -36.931 -66.016 -49.28 -60.897 -59.506 -50.671 C -69.733 -40.444 -74.851 -28.095 -74.851 -13.624 C -74.851 0.847 -69.733 13.195 -59.506 23.432 C -49.28 33.658 -36.931 38.767 -22.46 38.767 C -14.275 38.767 -6.794 37.126 0 33.828 Z" style="fill: rgb(255, 255, 255); fill-opacity: 1;"/>
      </g>
    </g>
    <g style="clip-path: url(#clippath0);">
      <g transform="">
        <path d="M 734.187 408.124 L 707.991 408.124 L 707.991 505.426 L 734.187 505.426 Z M 734.187 505.426 M 734.187 516.651 L 707.991 516.651 L 707.991 535.366 L 734.187 535.366 Z" style="fill: rgb(255, 255, 255); fill-opacity: 1;"/>
      </g>
      <g transform="translate(815.7686 482.2168)">
        <path d="M 0 0 C -2.193 0.499 -4.493 0.749 -6.883 0.749 C -14.069 0.749 -20.23 -1.792 -25.375 -6.883 C -30.511 -11.975 -33.078 -18.162 -33.078 -25.446 C -33.078 -27.836 -32.784 -30.083 -32.187 -32.178 Z M -13.623 -50.741 C -11.528 -51.339 -9.281 -51.643 -6.883 -51.643 C 0.401 -51.643 6.59 -49.048 11.681 -43.858 C 12.974 -42.557 14.124 -41.157 15.122 -39.668 L 37.127 -53.889 C 35.229 -56.876 32.937 -59.72 30.235 -62.413 C 19.955 -72.693 7.588 -77.838 -6.883 -77.838 C -21.354 -77.838 -33.702 -72.72 -43.93 -62.493 C -54.165 -52.267 -59.274 -39.917 -59.274 -25.446 C -59.274 -10.976 -54.165 1.373 -43.93 11.609 C -33.702 21.836 -21.354 26.945 -6.883 26.945 C 7.588 26.945 19.955 21.862 30.235 11.681 C 33.427 8.391 36.173 4.896 38.474 1.204 Z" style="fill: rgb(255, 255, 255); fill-opacity: 1;"/>
      </g>
      <g transform="translate(943.5996 505.4258)">
        <path d="M 0 0 L -35.326 -48.655 L 0 -97.302 L -13.918 -97.302 L -49.244 -48.655 L -13.918 0 Z M -55.984 -97.302 L -67.21 -97.302 L -67.21 26.195 L -55.984 26.195 Z" style="fill: rgb(237, 28, 36); fill-opacity: 1;"/>
      </g>
      <g transform="translate(1048.5332 474.29)">
        <path d="M 0 0 C -1.997 4.191 -4.743 8.078 -8.238 11.672 C -16.316 19.66 -26.053 23.646 -37.421 23.646 C -48.798 23.646 -58.507 19.634 -66.541 11.601 C -74.574 3.567 -78.586 -6.143 -78.586 -17.52 C -78.586 -28.896 -74.574 -38.598 -66.541 -46.631 C -58.507 -54.664 -48.798 -58.686 -37.421 -58.686 C -26.053 -58.686 -16.316 -54.638 -8.238 -46.56 C -4.743 -43.064 -1.997 -39.222 0 -35.031 Z M 0 31.287 L 11.226 31.287 L 11.226 -66.166 L 0 -66.166 L 0 -54.191 C -10.476 -64.668 -22.959 -69.911 -37.421 -69.911 C -51.892 -69.911 -64.249 -64.793 -74.476 -54.566 C -84.703 -44.34 -89.82 -31.99 -89.82 -17.52 C -89.82 -3.049 -84.703 9.3 -74.476 19.536 C -64.249 29.763 -51.892 34.872 -37.421 34.872 C -22.959 34.872 -10.476 29.638 0 19.161 Z" style="fill: rgb(237, 28, 36); fill-opacity: 1;"/>
      </g>
      <g transform="translate(1100.9248 477.1348)">
        <path d="M 0 0 L 0 -69.011 L -11.226 -69.011 L -11.226 28.291 L 0 28.291 L 0 18.555 C 9.38 27.542 20.605 32.027 33.686 32.027 L 33.686 20.802 C 23.298 20.802 14.471 17.163 7.187 9.879 C 4.19 6.883 1.801 3.593 0 0" style="fill: rgb(237, 28, 36); fill-opacity: 1;"/>
      </g>
      <g transform="translate(1153.3164 531.6211)">
        <path d="M 0 0 L 11.226 0 L 11.226 -26.195 L 26.195 -26.195 L 26.195 -37.421 L 11.226 -37.421 L 11.226 -123.497 L 0 -123.497 Z" style="fill: rgb(237, 28, 36); fill-opacity: 1;"/>
      </g>
      <g transform="translate(1268.1289 489.5547)">
        <path d="M 0 0 C -7.187 5.591 -15.514 8.382 -24.991 8.382 C -36.368 8.382 -46.078 4.369 -54.111 -3.664 C -62.146 -11.697 -66.157 -21.407 -66.157 -32.784 C -66.157 -42.263 -63.366 -50.59 -57.776 -57.776 Z M -49.841 -65.712 C -42.663 -71.204 -34.38 -73.95 -24.991 -73.95 C -13.623 -73.95 -3.887 -69.902 4.191 -61.824 L 12.126 -69.751 C 1.846 -80.031 -10.529 -85.176 -24.991 -85.176 C -39.463 -85.176 -51.82 -80.058 -62.047 -69.831 C -72.273 -59.604 -77.392 -47.255 -77.392 -32.784 C -77.392 -18.313 -72.273 -5.965 -62.047 4.271 C -51.82 14.498 -39.463 19.607 -24.991 19.607 C -10.529 19.607 1.846 14.524 12.126 4.343 C 13.428 2.942 14.677 1.498 15.871 0 Z" style="fill: rgb(237, 28, 36); fill-opacity: 1;"/>
      </g>
      <g transform="translate(298.9043 429.8818)">
        <path d="M 0 0 C -1.46 -0.326 -2.92 -0.652 -4.38 -0.979 C -5.071 1.275 -5.762 3.528 -6.453 5.781 L -15.403 35.103 L -15.641 35.896 L -18.792 46.221 L -14.57 47.683 L -11.834 38.787 L -11.151 36.469 L -2.855 9.34 Z" style="fill: rgb(255, 255, 255); fill-opacity: 1;"/>
      </g>
      <g transform="translate(294.1763 468.4785)">
        <path d="M 0 0 L -6.423 -2.128 L -6.453 -2.128 L -9.753 -3.208 L -10.675 -3.494 L -14.005 -4.606 C -14.035 -4.606 -14.035 -4.638 -14.064 -4.638 L -16.235 -5.337 C -29.021 -9.562 -42.521 -0.826 -44.602 13.278 C -46.446 25.572 -46.535 39.931 -46.297 49.652 L -38.863 49.652 L -38.863 63.28 L -29.824 66.266 L -26.523 67.346 L -10.497 72.619 C -10.497 72.619 -10.497 72.587 -10.467 72.556 C -10.437 72.524 -10.377 72.46 -10.348 72.365 C -8.563 70.015 5.768 50.382 13.648 32.466 C 19.357 19.537 12.786 4.193 0 0" style="fill: rgb(255, 255, 255); fill-opacity: 1;"/>
      </g>
      <g transform="translate(395.6602 445.3203)">
        <path d="M 0 0 L -67.17 0 C -65.892 0.223 -66.129 24.778 -66.516 44.919 C -66.843 61.279 -59.528 76.717 -46.98 86.089 C -45.167 87.423 -44.066 89.646 -44.066 92.029 L -44.066 125.924 L -38.387 125.924 L -38.387 139.076 L -23.104 139.076 L -23.104 92.029 C -23.104 89.646 -22.033 87.423 -20.219 86.089 C -7.642 76.717 -0.327 61.279 -0.654 44.919 C -0.951 30.846 -1.159 14.613 -0.802 6.036 C -0.743 4.956 -0.713 4.035 -0.624 3.209 L -0.624 3.113 C -0.505 1.271 -0.297 0.159 -0.029 0.032 Z" style="fill: rgb(237, 28, 36); fill-opacity: 1;"/>
      </g>
      <g transform="translate(442.7007 523.1177)">
        <path d="M 0 0 L -7.047 -14.771 L -7.761 -16.233 L -36.157 -75.828 L -36.247 -76.05 L -37.614 -78.877 L -41.569 -76.717 L -13.589 -18.012 L -11.626 -13.882 L -3.984 2.16 Z" style="fill: rgb(255, 255, 255); fill-opacity: 1;"/>
      </g>
      <g transform="translate(458.2817 521.4341)">
        <path d="M 0 0 C -4.52 -11.5 -14.868 -17.853 -23.342 -14.549 C -23.55 -14.486 -23.788 -14.391 -23.996 -14.295 C -24.115 -14.231 -24.234 -14.2 -24.323 -14.136 C -25.364 -13.628 -26.345 -12.993 -27.207 -12.199 C -33.333 -6.957 -35.176 3.875 -31.162 14.041 C -26.523 25.795 -15.789 32.18 -7.166 28.304 C -6.482 27.987 -5.828 27.637 -5.204 27.224 C 1.903 22.396 4.282 10.801 0 0" style="fill: rgb(255, 255, 255); fill-opacity: 1;"/>
      </g>
      <g transform="translate(495.3608 490.9697)">
        <path d="M 0 0 L -9.932 -11.437 L -46.981 -53.972 C -47.159 -54.194 -47.249 -54.321 -47.249 -54.321 L -50.906 -58.515 L -53.85 -55.592 L -12.964 -8.608 L -2.944 2.923 L -1.844 1.843 Z" style="fill: rgb(255, 255, 255); fill-opacity: 1;"/>
      </g>
      <g transform="translate(520.5757 504.0576)">
        <path d="M 0 0 L -8.683 -10.705 L -11.061 -13.597 L -21.022 -25.858 C -24.025 -29.575 -29.289 -29.956 -32.738 -26.748 L -35.146 -24.524 L -37.317 -22.491 L -38.179 -21.696 L -39.874 -20.141 C -43.293 -16.964 -43.68 -11.341 -40.677 -7.656 L -30.686 4.606 L -28.337 7.529 L -19.654 18.203 C -18.703 19.378 -17.068 19.505 -15.997 18.488 C -14.897 17.472 -14.778 15.725 -15.729 14.581 L -19.387 10.07 L -26.761 0.985 C -27.713 -0.191 -27.594 -1.938 -26.523 -2.922 C -25.423 -3.939 -23.788 -3.812 -22.836 -2.668 L -15.046 6.925 L -11.805 10.928 C -10.942 12.008 -9.456 12.199 -8.415 11.404 C -8.326 11.373 -8.236 11.277 -8.147 11.214 C -7.047 10.197 -6.928 8.45 -7.879 7.307 L -11.121 3.304 L -18.911 -6.29 C -19.863 -7.465 -19.714 -9.244 -18.673 -10.229 C -17.573 -11.214 -15.908 -11.118 -14.957 -9.975 L -7.583 -0.857 L -3.925 3.653 C -2.974 4.797 -1.338 4.924 -0.268 3.907 C 0.833 2.922 0.952 1.144 0 0" style="fill: rgb(237, 28, 36); fill-opacity: 1;"/>
      </g>
      <g transform="translate(215.5317 393.3613)">
        <path d="M 0 0 C 22.784 18.473 48.022 31.85 74.011 41.268 C 100.024 50.791 127.061 55.628 154.15 56.255 C 167.704 56.355 181.252 55.253 194.702 53.156 C 208.126 50.763 221.435 47.34 234.47 42.634 C 260.524 33.138 285.351 18.535 308.053 0 C 283.949 15.304 258.823 27.311 233.037 35.439 C 220.086 39.201 207.053 42.381 193.876 44.202 C 180.707 45.98 167.474 46.988 154.23 46.737 C 127.753 46.305 101.298 42.001 75.427 34.096 C 62.494 30.134 49.683 25.367 37.091 19.683 C 24.436 14.195 12.058 7.619 0 0" style="fill: rgb(255, 255, 255); fill-opacity: 1;"/>
      </g>
      <g transform="">
        <path d="M 248.85 536.013 L 240.043 536.013 L 240.043 545.422 L 248.85 545.422 Z" style="fill: rgb(255, 255, 255); fill-opacity: 1;"/>
        <path d="M 238.342 518.478 L 227.533 518.478 L 227.533 530.025 L 238.342 530.025 Z" style="fill: rgb(255, 255, 255); fill-opacity: 1;"/>
        <path d="M 251.153 522.754 L 244.347 522.754 L 244.347 530.025 L 251.153 530.025 Z" style="fill: rgb(255, 255, 255); fill-opacity: 1;"/>
        <path d="M 263.696 542.823 L 256.89 542.823 L 256.89 550.094 L 263.696 550.094 Z" style="fill: rgb(255, 255, 255); fill-opacity: 1;"/>
        <path d="M 235.239 550.094 L 228.433 550.094 L 228.433 557.365 L 235.239 557.365 Z" style="fill: rgb(255, 255, 255); fill-opacity: 1;"/>
        <path d="M 352.626 581.16 L 343.819 581.16 L 343.819 590.569 L 352.626 590.569 Z" style="fill: rgb(237, 28, 36); fill-opacity: 1;"/>
        <path d="M 342.119 563.625 L 331.31 563.625 L 331.31 575.172 L 342.119 575.172 Z" style="fill: rgb(237, 28, 36); fill-opacity: 1;"/>
        <path d="M 367.472 587.97 L 360.667 587.97 L 360.667 595.241 L 367.472 595.241 Z" style="fill: rgb(237, 28, 36); fill-opacity: 1;"/>
        <path d="M 339.015 595.241 L 332.21 595.241 L 332.21 602.512 L 339.015 602.512 Z" style="fill: rgb(237, 28, 36); fill-opacity: 1;"/>
      </g>
      <g transform="translate(294.1763 468.4785)">
        <path d="M 0 0 L -6.423 -2.128 C -3.443 -11.872 -0.464 -21.615 2.515 -31.358 C 1.102 -31.844 -0.312 -32.33 -1.725 -32.815 L -10.675 -3.494 L -14.005 -4.606 C -12.905 -4.002 -11.894 -3.399 -10.913 -2.7 C -9.545 -1.811 -8.266 -0.857 -7.106 0.19 C 18.555 22.714 -8.028 68.521 -10.348 72.365 C -8.563 70.014 5.768 50.383 13.648 32.466 C 19.357 19.536 12.786 4.193 0 0" style="fill: rgb(167, 169, 172); fill-opacity: 1;"/>
      </g>
      <g transform="translate(395.0063 490.2393)">
        <path d="M 0 0 C -0.297 -14.073 -0.505 -30.306 -0.148 -38.883 C -2.498 -11.277 -27.534 32.529 -27.534 32.529 L -22.45 94.157 L -22.45 47.11 C -22.45 44.728 -21.379 42.504 -19.565 41.17 C -6.988 31.798 0.327 16.36 0 0" style="fill: rgb(198, 12, 26); fill-opacity: 1;"/>
      </g>
      <g transform="translate(458.2817 521.4341)">
        <path d="M 0 0 C -4.52 -11.5 -14.868 -17.853 -23.342 -14.549 L -51.738 -74.144 L -29.17 -16.328 C -27.445 -15.725 -25.81 -14.994 -24.323 -14.136 C -23.729 -13.818 -23.164 -13.469 -22.628 -13.088 C -4.52 -1.175 -5.233 27.192 -5.233 27.192 L -5.204 27.224 C 1.903 22.396 4.282 10.801 0 0" style="fill: rgb(167, 169, 172); fill-opacity: 1;"/>
      </g>
      <g transform="translate(520.5757 504.0576)">
        <path d="M 0 0 L -8.683 -10.706 L -11.062 -13.597 L -21.022 -25.858 C -24.025 -29.575 -29.289 -29.956 -32.738 -26.748 L -35.146 -24.524 L -72.195 -67.06 C -69.728 -63.756 -50.549 -38.279 -37.317 -22.491 C -33.005 -17.377 -29.348 -13.278 -27.058 -11.245 C -26.255 -10.547 -25.631 -10.102 -25.215 -9.943 C -22.182 -8.895 -15.224 2.097 -8.415 11.404 C -8.326 11.373 -8.236 11.277 -8.147 11.213 C -7.047 10.197 -6.928 8.45 -7.88 7.307 L -11.121 3.304 L -18.911 -6.29 C -19.863 -7.465 -19.714 -9.244 -18.673 -10.229 C -17.573 -11.214 -15.908 -11.118 -14.956 -9.975 L -7.583 -0.858 L -3.925 3.653 C -2.974 4.797 -1.338 4.924 -0.268 3.908 C 0.833 2.922 0.952 1.144 0 0" style="fill: rgb(198, 12, 26); fill-opacity: 1;"/>
      </g>
    </g>
  </g>
</svg>